<?xml version="1.0" encoding="utf-8"?>
<!-- Generator: Adobe Illustrator 17.0.0, SVG Export Plug-In . SVG Version: 6.00 Build 0)  -->
<!DOCTYPE svg PUBLIC "-//W3C//DTD SVG 1.1//EN" "http://www.w3.org/Graphics/SVG/1.1/DTD/svg11.dtd">
<svg version="1.1" id="Camada_1" xmlns="http://www.w3.org/2000/svg" xmlns:xlink="http://www.w3.org/1999/xlink" x="0px" y="0px"
	 width="28px" height="28px" viewBox="0 0 28 28" enable-background="new 0 0 28 28" xml:space="preserve">
<path d="M14,5.531c-4.816,0-8.719,3.938-8.719,8.719c0,4.816,3.902,8.719,8.719,8.719s8.719-3.902,8.719-8.719
	C22.719,9.469,18.816,5.531,14,5.531z M14.583,20.711c-0.194,0.018-0.389,0.006-0.583,0.006c-0.195-0.001-0.39,0.012-0.583-0.006
	c-0.034-0.003-0.068-0.013-0.103-0.017c-1.069-0.118-2.108-0.495-3.005-1.136L14,15.867l3.691,3.691
	c-0.898,0.641-1.936,1.018-3.005,1.136C14.652,20.698,14.618,20.708,14.583,20.711z M10.311,8.954
	c0.119-0.084,0.249-0.144,0.373-0.219c0.211-0.126,0.421-0.258,0.642-0.358c0.096-0.044,0.198-0.071,0.296-0.11
	c0.25-0.099,0.5-0.195,0.757-0.262c0.128-0.033,0.259-0.046,0.388-0.071c0.229-0.045,0.458-0.092,0.69-0.111
	c0.18-0.015,0.362-0.006,0.543-0.006c0.181,0,0.363-0.009,0.543,0.006c0.231,0.02,0.46,0.067,0.69,0.111
	c0.129,0.025,0.26,0.038,0.388,0.071c0.257,0.067,0.508,0.163,0.757,0.262c0.098,0.039,0.2,0.066,0.296,0.11
	c0.221,0.1,0.43,0.232,0.642,0.358c0.123,0.075,0.254,0.135,0.373,0.219c0.012,0.008,0.022,0.019,0.033,0.027L14,12.703
	l-3.722-3.722C10.29,8.973,10.3,8.962,10.311,8.954z M19.273,17.977l-3.691-3.691l3.718-3.718
    C20.866,12.832,20.82,15.812,19.273,17.977z M12.418,14.285l-3.691,3.691c-1.546-2.165-1.593-5.144-0.027-7.41L12.418,14.285z"/>
    <style type="text/css">
        path {
          fill: white;
        }
    </style>
</svg>
